<mxfile host="app.diagrams.net" modified="2023-10-11T17:05:24.617Z" agent="Mozilla/5.0 (Windows NT 10.0; Win64; x64) AppleWebKit/537.36 (KHTML, like Gecko) Chrome/117.0.0.0 Safari/537.36" version="22.0.4" etag="Rd1kLSa4-T2CNjTP_jep" type="github">
  <diagram name="Halaman-1" id="zievfR8BE4Mrv5VviONW">
    <mxGraphModel>
      <root>
        <mxCell id="0" />
        <mxCell id="1" parent="0" />
      </root>
    </mxGraphModel>
  </diagram>
</mxfile>
